<svg width="1067" height="895" viewBox="0 0 1067 895" fill="none" xmlns="http://www.w3.org/2000/svg">
<g id="undraw_Tree_swing_646s 1" clip-path="url(#clip0)">
<path id="Vector" opacity="0.8" d="M679.145 442.37L733.077 379.712L787.009 317.054L817.454 281.683C819.139 279.726 816.539 276.673 814.855 278.63L760.923 341.288L706.991 403.946L676.546 439.317C674.861 441.274 677.461 444.327 679.145 442.37Z" fill="url(#paint0_linear)"/>
<path id="Vector_2" d="M364.011 382.02L361.007 385.004L358.023 382L356.02 383.989L359.004 386.993L356 389.977L357.989 391.98L360.993 388.996L363.977 392L365.98 390.011L362.996 387.007L366 384.023L364.011 382.02Z" fill="#E6E6E6"/>
<path id="Vector_3" d="M578 293.34L573.734 292.482L574.668 288.571L571.825 288L570.889 291.911L566.623 291.055L566 293.661L570.266 294.519L569.332 298.429L572.175 299L573.111 295.089L577.377 295.946L578 293.34Z" fill="#E6E6E6"/>
<g id="Stars">
<path id="Vector_4" d="M341.011 551.02L338.007 554.004L335.023 551L333.02 552.989L336.004 555.993L333 558.977L334.989 560.98L337.993 557.996L340.977 561L342.98 559.011L339.996 556.007L343 553.023L341.011 551.02Z" fill="#E6E6E6"/>
<path id="Vector_5" d="M437.261 61.9751C430.767 66.2352 424.12 56.0958 430.739 52.0248C437.233 47.7649 443.88 57.9044 437.261 61.9751Z" fill="#E6E6E6"/>
<path id="Vector_6" d="M73 495.34L69.0898 494.482L69.946 490.571L67.3393 490L66.4815 493.911L62.5713 493.055L62 495.661L65.9102 496.519L65.054 500.429L67.6607 501L68.5185 497.089L72.4287 497.946L73 495.34Z" fill="#E6E6E6"/>
<path id="Vector_7" d="M685 14.8255L681.09 13.8899L681.946 9.62318L679.339 9L678.481 13.2667L674.571 12.3328L674 15.1762L677.91 16.1118L677.054 20.3768L679.661 21L680.519 16.7333L684.429 17.6689L685 14.8255Z" fill="#E6E6E6"/>
<path id="Vector_8" d="M998 273.34L993.734 272.482L994.668 268.571L991.825 268L990.889 271.911L986.623 271.055L986 273.661L990.266 274.519L989.332 278.429L992.175 279L993.111 275.089L997.377 275.946L998 273.34Z" fill="#E6E6E6"/>
<path id="Vector_9" d="M242 78.3393L238.09 77.4815L238.946 73.5713L236.34 73L235.482 76.9102L231.571 76.054L231 78.6607L234.911 79.5185L234.055 83.4303L236.661 84L237.519 80.0898L241.429 80.946L242 78.3393Z" fill="#E6E6E6"/>
<path id="Vector_10" d="M732 221.339L728.09 220.481L728.946 216.571L726.34 216L725.482 219.91L721.571 219.054L721 221.661L724.911 222.519L724.055 226.43L726.661 227L727.519 223.09L731.429 223.946L732 221.339Z" fill="#E6E6E6"/>
</g>
<path id="Vector_11" opacity="0.8" d="M561.44 151.702L586.127 122.082L610.814 92.4621L624.75 75.741C625.521 74.8158 624.331 73.3725 623.56 74.2976L598.873 103.918L574.186 133.538L560.25 150.259C559.479 151.184 560.669 152.627 561.44 151.702Z" fill="url(#paint1_linear)"/>
<path id="Vector_12" d="M121.5 295C188.603 295 243 240.603 243 173.5C243 106.397 188.603 52 121.5 52C54.3974 52 0 106.397 0 173.5C0 240.603 54.3974 295 121.5 295Z" fill="#E6E6E6"/>
<path id="Vector_13" d="M110 104C117.732 104 124 97.732 124 90C124 82.268 117.732 76 110 76C102.268 76 96 82.268 96 90C96 97.732 102.268 104 110 104Z" fill="#CBCBCB"/>
<path id="Vector_14" d="M133 243C140.732 243 147 236.732 147 229C147 221.268 140.732 215 133 215C125.268 215 119 221.268 119 229C119 236.732 125.268 243 133 243Z" fill="#CBCBCB"/>
<path id="Vector_15" d="M187 162C192.523 162 197 157.299 197 151.5C197 145.701 192.523 141 187 141C181.477 141 177 145.701 177 151.5C177 157.299 181.477 162 187 162Z" fill="#CBCBCB"/>
<path id="Vector_16" d="M73.5 215C90.897 215 105 200.673 105 183C105 165.327 90.897 151 73.5 151C56.103 151 42 165.327 42 183C42 200.673 56.103 215 73.5 215Z" fill="#CBCBCB"/>
<path id="Vector_17" d="M745.147 774.319H742.652V484.574C742.654 483.394 742.407 482.228 741.929 481.162C741.451 480.096 740.755 479.157 739.891 478.414L741.468 476.361C742.619 477.352 743.547 478.604 744.184 480.025C744.82 481.447 745.149 483.001 745.147 484.574V774.319Z" fill="#3F3D56"/>
<path id="Vector_18" d="M490.988 30.7592C491.633 32.3223 492.115 33.9563 492.423 35.6313C491.724 33.0761 491.175 31.3417 490.988 30.7592Z" fill="#3F3D56"/>
<path id="Vector_19" d="M513.118 111.706C513.118 111.706 513.118 113.533 511.26 120.126L513.118 111.706Z" fill="#3F3D56"/>
<path id="Vector_20" d="M740.898 387.5C691.834 414.641 627.651 438.075 608.427 444.866C623.085 440.815 665.749 435.361 731.854 479.13C814.912 534.114 903.721 497.454 903.721 497.454C903.721 497.454 883.985 537.609 842.045 540.218C800.104 542.839 690.736 469.532 653.736 490.477C616.723 511.422 599.457 485.234 584.65 537.609C569.854 589.972 542.722 733.091 573.971 813.389L605.208 893.673H427.59C427.59 893.673 491.736 712.146 456.37 600.444C436.572 537.887 408.778 492.582 398.411 469.558C393.209 458.027 392.386 452.095 399.123 452.387C402.952 452.559 409.227 454.743 418.546 459.059C418.546 459.059 375.782 414.548 361.81 414.548C347.826 414.548 282.033 407.571 260.663 384.004C260.663 384.004 230.237 361.312 175.959 417.169C121.68 473.027 134.841 473.027 86.3264 468.658C38.5724 464.355 1.16008 439.769 -9.15527e-05 439.001C1.38462 439.597 57.16 463.256 91.254 451.208C125.797 438.988 155.4 392.729 185.826 377.027C216.253 361.312 234.341 340.367 275.459 363.059L248.363 295.26L240.941 276.685L240.928 276.658C240.928 276.658 231.871 149.241 214.606 140.516C197.341 131.778 208.032 109.099 175.959 104.73C175.959 104.73 215.429 99.4867 222.827 128.296C230.237 157.092 281.222 312.445 281.222 312.445C281.222 312.445 312.459 378.761 347.002 363.059C381.546 347.344 333.841 259.208 333.841 259.208L274.635 230.399C274.635 230.399 319.046 228.652 346.179 255.713C373.312 282.762 374.959 370.037 374.959 370.037C374.959 370.037 443.209 380.509 459.663 419.791C459.663 419.791 470.354 384.878 449.796 363.933C444.656 358.69 439.255 349.582 434.052 338.871C414.333 297.761 407.207 251.14 413.668 205.522C416.725 183.2 418.608 161.368 415.253 156.218C407.855 144.872 376.605 75.0598 374.135 56.723C371.678 38.3995 376.605 0.00485229 376.605 0.00485229C376.605 0.00485229 377.429 47.1244 387.296 61.9659C397.164 76.8074 425.12 150.115 425.12 150.115C425.12 150.115 425.12 242.619 448.149 288.004C471.178 333.39 515.576 384.004 513.118 417.169V436.367C513.118 436.367 562.457 386.626 559.163 370.037C555.87 353.461 551.766 314.179 520.516 290.626C489.266 267.06 468.708 229.525 490.913 175.415C503.4 144.978 508.864 128.627 511.26 120.14L498.311 178.911C498.311 178.911 490.09 239.124 513.118 260.069C513.181 260.122 513.231 260.175 513.293 260.228C536.284 281.199 566.561 319.422 566.561 319.422L566.474 317.74L559.987 193.752L561.409 197.062L571.663 220.92L581.369 243.493C581.369 243.493 627.414 180.658 681.692 159.713C735.958 138.768 769.678 65.4611 769.678 65.4611L815.735 27.0532L777.899 75.0598C777.899 75.0598 766.384 131.778 701.427 171.933C636.458 212.076 594.53 271.415 592.06 308.076C589.59 344.736 587.12 377.027 587.12 377.027C587.12 377.027 708.825 372.658 735.958 315.927C763.103 259.208 785.309 256.587 785.309 256.587L769.678 305.454L752.412 347.344C752.412 347.344 823.133 349.092 860.133 393.603C897.146 438.114 989.236 451.208 989.236 451.208L937.44 466.036C937.44 466.036 888.09 448.587 841.221 416.296C794.353 384.004 799.281 355.208 740.898 387.5Z" fill="#564540"/>
<path id="Vector_21" opacity="0.1" d="M767.12 268.422C761.918 292.862 755.793 316.468 747.185 334.461C720.053 391.192 598.347 395.561 598.347 395.561C598.347 395.561 598.921 388.068 599.794 376.245C630.695 373.544 715.162 362.012 737.206 315.926C739.226 311.715 741.098 307.187 742.869 302.421L767.12 268.422Z" fill="black"/>
<path id="Vector_22" opacity="0.1" d="M577.789 337.956C577.789 337.956 547.362 299.548 524.346 278.603C519.294 274.022 515.751 267.535 513.293 260.227C513.094 259.644 512.906 259.048 512.719 258.453C513.256 259.009 513.792 259.552 514.366 260.068C534.513 278.405 560.349 310.127 566.474 317.739C567.335 318.825 567.809 319.421 567.809 319.421L561.409 197.061L571.663 220.919L577.789 337.956Z" fill="black"/>
<path id="Vector_23" opacity="0.1" d="M595.401 227.76C595.222 249.247 592.594 262.027 592.594 262.027C592.594 262.027 638.625 199.218 692.884 178.259C696.091 176.106 699.344 173.986 702.674 171.928C767.638 131.782 779.151 75.0548 779.151 75.0548L816.978 27.0547L770.927 65.4548C770.927 65.4548 737.212 138.764 682.938 159.71C645.943 173.987 612.774 207.723 595.401 227.76Z" fill="black"/>
<path id="Vector_24" opacity="0.1" d="M524.341 435.701V454.901C524.341 454.901 573.68 405.155 570.391 388.573C567.875 375.892 564.864 349.944 549.616 327.897C556.489 344.559 558.581 360.811 560.411 370.038C562.77 381.929 538.067 410.871 523.9 426.297C524.397 429.402 524.545 432.559 524.341 435.701Z" fill="black"/>
<path id="Vector_25" opacity="0.1" d="M458.156 303.94C458.547 304.824 458.95 305.695 459.377 306.536C471.987 331.391 490.998 357.81 505.222 382.078C493.726 358.045 473.72 330.563 458.156 303.94Z" fill="black"/>
<path id="Vector_26" opacity="0.1" d="M733.1 479.129C706.049 461.222 682.927 451.558 664.039 446.662C644.226 454.576 627.919 460.477 619.714 463.375C634.43 459.332 677.063 453.962 743.08 497.665C794.876 531.953 848.909 530.602 882.245 524.728C891.465 517.346 899.192 508.071 904.967 497.456C904.967 497.456 816.155 534.111 733.1 479.129Z" fill="black"/>
<path id="Vector_27" opacity="0.1" d="M498.246 266.785C491.615 249.541 490.522 229.022 498.141 204.978C498.045 196.264 498.519 187.554 499.559 178.91L512.507 120.125C510.12 128.602 504.658 144.956 492.158 175.419C476.333 213.983 482.239 244.118 498.246 266.785Z" fill="black"/>
<path id="Vector_28" opacity="0.1" d="M861.383 393.602C835.72 362.734 793.849 352.436 770.588 349.022L763.638 365.882C763.638 365.882 834.359 367.628 871.363 412.137C891.884 436.819 929.343 451.836 958.648 460.32L990.489 451.202C990.489 451.202 898.388 438.111 861.383 393.602Z" fill="black"/>
<path id="Vector_29" opacity="0.1" d="M358.23 381.591C392.768 365.882 345.073 277.736 345.073 277.736L343.768 277.102C355.659 303.727 372.904 351.843 348.25 363.056C325.181 373.549 303.583 347.444 291.78 328.948C292.209 330.256 292.444 330.973 292.444 330.973C292.444 330.973 323.692 397.301 358.23 381.591Z" fill="black"/>
<path id="Vector_30" opacity="0.1" d="M470.889 438.319C470.889 438.319 481.296 404.274 461.745 383.254C466.54 401.362 460.909 419.783 460.909 419.783C448.187 389.403 404.47 376.26 385.321 371.864C386.064 381.979 386.189 388.573 386.189 388.573C386.189 388.573 454.443 399.046 470.889 438.319Z" fill="black"/>
<path id="Vector_31" opacity="0.1" d="M512.507 120.125C514.36 113.544 514.361 111.71 514.361 111.71L512.507 120.125Z" fill="black"/>
<path id="Vector_32" opacity="0.1" d="M101.987 469.904C102.153 469.847 102.321 469.795 102.486 469.737C137.024 457.519 166.628 411.264 197.054 395.555C227.48 379.846 245.571 358.9 286.688 381.591C286.688 381.591 279.494 350.343 265.555 329.813C270.172 340.531 273.904 351.653 276.708 363.056C235.591 340.365 217.5 361.311 187.074 377.02C156.648 392.729 127.044 438.984 92.5061 451.202C57.9683 463.42 1.2276 438.984 1.2276 438.984C1.2276 438.984 39.0547 464.293 87.5721 468.656C93.1222 469.156 97.8579 469.596 101.987 469.904Z" fill="black"/>
<path id="Vector_33" opacity="0.1" d="M252.156 295.192C252.156 295.192 250.808 295.219 248.363 295.259L240.941 276.684C241.751 276.67 242.176 276.657 242.176 276.657C242.176 276.657 236.462 196.293 225.459 158.838C225.596 158.905 225.709 158.984 225.833 159.05C243.099 167.775 252.156 295.192 252.156 295.192Z" fill="black"/>
<path id="Vector_34" opacity="0.1" d="M444.826 893.676C459.893 844.656 496.129 709.102 467.6 618.974C455.28 580.051 443.86 555.232 434.206 539.397C441.426 554.387 449.319 574.213 457.62 600.439C492.98 712.148 428.838 893.676 428.838 893.676H444.826Z" fill="black"/>
<path id="Vector_35" opacity="0.1" d="M429.773 477.593C419.851 472.963 409.232 470.242 398.412 469.557C393.209 458.025 392.386 452.094 399.123 452.385C400.994 452.743 402.878 453.167 404.749 453.656C417.972 465.307 429.773 477.593 429.773 477.593Z" fill="black"/>
<path id="Vector_36" opacity="0.1" d="M207.152 132.037C208.09 133.714 209.227 135.256 210.534 136.626C209.574 134.965 208.44 133.426 207.152 132.037Z" fill="black"/>
<path id="Vector_37" opacity="0.1" d="M357.408 274.246C358.679 275.521 359.87 276.884 360.973 278.325C357.371 269.135 352.922 261.188 347.428 255.71C320.291 228.656 275.885 230.401 275.885 230.401L331.575 257.49C341.117 261.268 349.887 266.956 357.408 274.246Z" fill="black"/>
<path id="Vector_38" opacity="0.1" d="M416.504 156.219C419.86 161.363 417.974 183.196 414.91 205.524C408.451 251.14 415.58 297.758 435.301 338.865C437.921 344.366 440.847 349.696 444.064 354.828C425.27 314.329 418.58 268.704 424.89 224.06C427.954 201.731 429.839 179.899 426.483 174.754C419.083 163.409 387.834 93.5902 385.367 75.2628C384.627 68.1527 384.455 60.9889 384.852 53.848C378.464 34.6129 377.854 0 377.854 0C377.854 0 372.92 38.4002 375.387 56.7274C377.854 75.0546 409.103 144.873 416.504 156.219Z" fill="black"/>
<path id="Vector_39" opacity="0.1" d="M493.65 35.567C493.321 33.842 492.821 32.1589 492.158 30.5456C492.158 30.5456 492.79 32.4292 493.65 35.567Z" fill="black"/>
<path id="Vector_40" opacity="0.1" d="M203.201 123.462C210.448 124.404 218.785 126.764 225.144 132.237C224.729 130.748 224.367 129.413 224.079 128.292C216.678 99.4915 177.206 104.728 177.206 104.728C195.044 107.155 199.651 115.252 203.201 123.462Z" fill="black"/>
<g id="grass">
<path id="Vector_41" d="M978.676 848.837C966.411 868.797 969.772 894.184 969.772 894.184C969.772 894.184 993.016 887.208 1005.28 867.248C1017.54 847.288 1014.18 821.901 1014.18 821.901C1014.18 821.901 990.94 828.876 978.676 848.837Z" fill="#074601"/>
<path id="Vector_42" d="M987.888 852.365C986.918 876.172 970.267 894.744 970.267 894.744C970.267 894.744 955.187 874.717 956.156 850.91C957.126 827.103 973.777 808.532 973.777 808.532C973.777 808.532 988.857 828.559 987.888 852.365Z" fill="#24A439"/>
</g>
<path id="Vector_43" d="M771.88 701.709C771.88 701.709 785.992 685.997 791.768 689.158C797.543 692.319 775.161 706.369 775.161 706.369L771.88 701.709Z" fill="#FFB9B9"/>
<path id="Vector_44" opacity="0.1" d="M771.88 701.709C771.88 701.709 785.992 685.997 791.768 689.158C797.543 692.319 775.161 706.369 775.161 706.369L771.88 701.709Z" fill="black"/>
<path id="Vector_45" d="M728.825 667.417C728.825 667.417 723.637 677.285 724.995 687.922C726.352 698.56 738.766 732.695 742.987 732.089C747.207 731.482 778.469 707.034 778.469 707.034L772.507 698.198L749.669 712.883C749.669 712.883 746.19 660.36 728.825 667.417Z" fill="#D0CDE1"/>
<path id="Vector_46" d="M813.507 691.439L777.904 712.194C777.698 712.339 777.464 712.435 777.219 712.474C776.974 712.514 776.724 712.495 776.486 712.421C776.248 712.347 776.029 712.218 775.843 712.044C775.657 711.87 775.51 711.654 775.411 711.413L766.689 692.066C766.524 691.514 766.551 690.918 766.765 690.386C766.979 689.853 767.366 689.42 767.856 689.165L797.415 672.996C797.779 672.763 798.211 672.681 798.629 672.766C799.046 672.851 799.419 673.096 799.677 673.454L814.442 688.217C814.587 688.492 814.679 688.796 814.71 689.109C814.741 689.423 814.713 689.74 814.625 690.041C814.538 690.342 814.393 690.622 814.201 690.862C814.009 691.102 813.773 691.299 813.507 691.439Z" fill="#2F2E41"/>
<path id="Vector_47" d="M811.131 688.58L777.754 708.827L768.872 691.838L797.504 675.313L811.131 688.58Z" fill="#636DFF"/>
<path id="Vector_48" d="M783.127 682.729C783.301 682.508 783.298 682.201 783.12 682.044C782.942 681.886 782.657 681.938 782.483 682.159C782.31 682.38 782.313 682.687 782.49 682.844C782.668 683.002 782.953 682.95 783.127 682.729Z" fill="#F2F2F2"/>
<path id="Vector_49" d="M795.412 700.015C795.528 699.868 795.526 699.663 795.407 699.559C795.289 699.454 795.099 699.488 794.983 699.636C794.867 699.783 794.869 699.987 794.988 700.092C795.106 700.197 795.296 700.163 795.412 700.015Z" fill="#F2F2F2"/>
<path id="Vector_50" d="M728.825 667.417C728.825 667.417 723.637 677.285 724.995 687.922C726.352 698.56 738.766 732.695 742.987 732.089C747.207 731.482 778.469 707.034 778.469 707.034L772.507 698.198L749.669 712.883C749.669 712.883 746.19 660.36 728.825 667.417Z" fill="#EE5353"/>
<path id="Vector_51" d="M762.34 704.711C762.34 704.711 778.311 691.151 783.634 695.106C788.958 699.061 765.002 709.796 765.002 709.796L762.34 704.711Z" fill="#FFB9B9"/>
<path id="Vector_52" d="M741.046 650.472C749.572 650.472 756.484 643.137 756.484 634.087C756.484 625.038 749.572 617.703 741.046 617.703C732.519 617.703 725.607 625.038 725.607 634.087C725.607 643.137 732.519 650.472 741.046 650.472Z" fill="#FFB9B9"/>
<path id="Vector_53" d="M794.281 748.215C794.281 748.215 810.785 750.475 810.252 761.21C809.72 771.945 797.476 816.579 797.476 816.579L796.411 834.094C796.411 834.094 797.476 863.473 794.281 862.908C791.087 862.343 783.634 842.004 783.634 842.004C783.634 842.004 774.584 835.789 778.843 830.139C783.102 824.489 786.296 825.054 785.231 818.839C784.167 812.624 784.699 786.635 787.893 778.725C791.087 770.815 792.948 766.452 792.948 766.452L782.57 765.73L794.281 748.215Z" fill="#FFB9B9"/>
<g id="Legs">
<path id="Vector_54" opacity="0.1" d="M794.281 748.215C794.281 748.215 810.785 750.475 810.252 761.21C809.72 771.945 797.476 816.579 797.476 816.579L796.411 834.094C796.411 834.094 797.476 863.473 794.281 862.908C791.087 862.343 783.634 842.004 783.634 842.004C783.634 842.004 774.584 835.789 778.843 830.139C783.102 824.489 786.296 825.054 785.231 818.839C784.167 812.624 784.699 786.635 787.893 778.725C791.087 770.815 792.948 766.452 792.948 766.452L782.57 765.73L794.281 748.215Z" fill="black"/>
<path id="Vector_55" d="M795.346 751.04C795.346 751.04 811.317 754.995 812.914 766.295C814.511 777.595 822.497 810.929 822.497 810.929L831.014 831.834C831.014 831.834 844.323 857.258 838.467 856.693C832.611 856.128 824.626 843.699 821.964 843.699C819.302 843.699 811.317 840.309 811.849 838.049C812.382 835.789 816.108 829.009 816.108 829.009L803.229 805.198C800.742 800.602 798.862 795.664 797.642 790.524C796.319 784.948 794.814 778.117 794.814 775.9C794.814 771.945 784.167 770.25 784.167 770.25L795.346 751.04Z" fill="#FFB9B9"/>
</g>
<path id="Vector_56" d="M743.175 714.881L750.628 737.481C750.628 737.481 762.34 740.871 770.858 743.696C779.375 746.52 795.346 742.565 796.943 749.345C798.54 756.125 793.749 767.99 788.958 770.815C784.167 773.64 781.505 776.465 766.066 771.945C750.628 767.425 713.895 766.295 713.895 766.295C710.334 768.563 706.324 769.917 702.183 770.25C695.262 770.815 693.665 771.38 691.536 769.685C689.407 767.99 692.601 767.99 693.665 763.47C694.73 758.95 695.263 760.645 700.054 755.56C704.845 750.475 708.572 735.221 711.233 730.136C713.895 725.051 715.492 714.881 715.492 714.881H743.175Z" fill="#2F2E41"/>
<path id="Vector_57" d="M742.11 647.647C740.176 649.147 738.594 651.099 737.486 653.353C736.378 655.606 735.775 658.101 735.722 660.642C735.722 669.117 719.751 651.602 719.751 651.602C719.751 651.602 728.269 640.302 728.269 636.912C728.269 633.523 742.11 647.647 742.11 647.647Z" fill="#FFB9B9"/>
<path id="Vector_58" d="M721.881 644.257C721.881 644.257 731.463 648.212 733.592 653.862C735.722 659.512 743.707 671.377 743.707 671.377C743.707 671.377 754.887 683.807 751.16 697.366C747.434 710.926 744.24 714.316 744.24 716.576C744.24 718.836 738.916 722.791 734.657 722.226C730.398 721.661 714.427 719.401 713.363 717.141C712.298 714.881 705.91 682.677 710.169 670.812C713.623 661.745 717.533 652.881 721.881 644.257Z" fill="#EB565F"/>
<path id="Vector_59" d="M745.523 634.833C748.978 635.703 752.368 633.367 755.199 631.051C756.807 629.736 758.576 627.86 758.083 625.744C757.646 623.866 755.562 622.801 755.259 620.893C755.048 619.567 755.778 618.276 755.837 616.932C755.785 615.908 755.468 614.918 754.921 614.072C754.375 613.226 753.62 612.555 752.738 612.134C751.055 611.172 749.146 610.771 747.417 609.91C744.776 608.596 742.581 606.226 739.761 605.467C735.909 604.43 731.986 606.638 728.024 606.924C725.627 607.097 723.2 606.56 720.828 606.978C718.567 607.463 716.525 608.742 715.032 610.609C713.539 612.476 712.682 614.822 712.599 617.269C712.568 619.067 712.907 621.073 711.896 622.5C711.496 622.991 711.041 623.428 710.541 623.801C707.018 626.824 705.419 631.875 705.237 636.741C705.148 639.136 705.62 641.981 707.623 642.999C708.695 643.389 709.828 643.556 710.96 643.492C711.529 643.466 712.095 643.589 712.608 643.849C713.122 644.11 713.568 644.499 713.907 644.985C714.818 646.692 713.452 649.214 714.645 650.704C715.541 651.823 717.289 651.451 718.335 650.498C719.382 649.544 720.034 648.172 721.026 647.153C722.956 645.169 725.818 644.809 728.463 644.508C729.247 644.502 730.01 644.236 730.645 643.749C731.125 643.213 731.438 642.533 731.54 641.802C731.888 640.119 731.892 638.376 731.553 636.69C731.385 636.169 731.364 635.606 731.492 635.072C731.667 634.692 731.937 634.371 732.273 634.144C733.912 632.837 736.784 630.934 738.914 631.294C741.278 631.693 743.138 634.232 745.523 634.833Z" fill="#2F2E41"/>
<path id="Vector_60" d="M724.01 664.597C724.01 664.597 717.622 673.637 717.622 684.371C717.622 695.106 725.607 730.701 729.866 730.701C734.125 730.701 768.196 710.926 768.196 710.926L763.405 701.321L738.916 712.621C738.916 712.621 742.11 660.077 724.01 664.597Z" fill="#EE5353"/>
<path id="Vector_61" d="M796.294 766.577H674.04V791.732H796.294V766.577Z" fill="#E1BC5C"/>
<path id="Vector_62" d="M735.167 793.056C732.521 793.052 729.984 791.936 728.114 789.95C726.243 787.964 725.19 785.272 725.187 782.464V484.574C725.187 482.572 725.722 480.61 726.73 478.917C727.738 477.224 729.178 475.869 730.882 475.009C732.587 474.149 734.486 473.819 736.359 474.059C738.233 474.298 740.004 475.096 741.468 476.361L739.891 478.414C738.794 477.465 737.465 476.867 736.06 476.688C734.655 476.508 733.231 476.755 731.953 477.4C730.675 478.045 729.595 479.062 728.839 480.331C728.083 481.601 727.682 483.072 727.682 484.574V782.464C727.684 784.57 728.474 786.589 729.877 788.079C731.28 789.568 733.183 790.405 735.167 790.408V793.056Z" fill="#3F3D56"/>
<path id="Vector_63" d="M1067 892.352H61.5212V895H1067V892.352Z" fill="#3F3D56"/>
<path id="Vector_64" d="M716.303 626.687C716.84 626.229 716.226 624.471 714.932 622.761C713.638 621.051 712.153 620.035 711.616 620.493C711.079 620.951 711.692 622.709 712.987 624.419C714.281 626.129 715.766 627.145 716.303 626.687Z" fill="#D60C6D"/>
<path id="Vector_65" d="M609.418 848.837C597.154 868.797 600.514 894.184 600.514 894.184C600.514 894.184 623.758 887.208 636.023 867.248C648.287 847.288 644.926 821.901 644.926 821.901C644.926 821.901 621.682 828.876 609.418 848.837Z" fill="#184D1D"/>
<path id="Vector_66" d="M618.63 852.365C617.661 876.172 601.009 894.744 601.009 894.744C601.009 894.744 585.929 874.717 586.898 850.91C587.868 827.103 604.52 808.532 604.52 808.532C604.52 808.532 619.6 828.559 618.63 852.365Z" fill="#24A439"/>
<path id="Vector_67" d="M407.587 856.387C413.451 879.389 433.533 893.635 433.533 893.635C433.533 893.635 444.11 870.587 438.247 847.585C432.383 824.583 412.301 810.337 412.301 810.337C412.301 810.337 401.724 833.385 407.587 856.387Z" fill="#074601"/>
<path id="Vector_68" d="M416.203 851.444C432.291 868.065 434.257 893.616 434.257 893.616C434.257 893.616 410.137 892.219 394.048 875.597C377.96 858.976 375.995 833.424 375.995 833.424C375.995 833.424 400.114 834.822 416.203 851.444Z" fill="#24A439"/>
<path id="Vector_69" d="M362.878 227.782C361.48 251.564 344.496 269.794 344.496 269.794C344.496 269.794 329.78 249.465 331.179 225.682C332.577 201.899 349.561 183.669 349.561 183.669C349.561 183.669 364.277 203.999 362.878 227.782Z" fill="#184D1D"/>
<path id="Vector_70" d="M359.175 457.584C336.158 451.437 321.711 431.138 321.711 431.138C321.711 431.138 344.582 420.805 367.599 426.952C390.616 433.099 405.063 453.398 405.063 453.398C405.063 453.398 382.192 463.731 359.175 457.584Z" fill="#184D1D"/>
<path id="Vector_71" d="M185.839 77.4315C204.832 90.1399 211.76 114.699 211.76 114.699C211.76 114.699 187.893 118.654 168.9 105.946C149.907 93.2372 142.979 68.6779 142.979 68.6779C142.979 68.6779 166.846 64.7231 185.839 77.4315Z" fill="#4D9713"/>
<path id="Vector_72" d="M143.424 367.377C162.417 380.086 169.345 404.645 169.345 404.645C169.345 404.645 145.478 408.6 126.485 395.891C107.492 383.183 100.565 358.624 100.565 358.624C100.565 358.624 124.431 354.669 143.424 367.377Z" fill="#24A439"/>
<path id="Vector_73" d="M529.548 119.819C523.82 142.86 503.821 157.238 503.821 157.238C503.821 157.238 493.109 134.261 498.837 111.22C504.565 88.1796 524.563 73.8011 524.563 73.8011C524.563 73.8011 535.275 96.7787 529.548 119.819Z" fill="#184D1D"/>
<path id="Vector_74" d="M710.229 137.785C703.497 160.517 682.889 173.892 682.889 173.892C682.889 173.892 673.197 150.41 679.929 127.678C686.661 104.945 707.268 91.57 707.268 91.57C707.268 91.57 716.961 115.052 710.229 137.785Z" fill="#24A439"/>
<path id="Vector_75" d="M641.132 358.315C630.186 373.227 596.681 382 596.681 382C596.681 382 580.923 366.597 591.868 351.685C602.814 336.773 636.319 328 636.319 328C636.319 328 652.077 343.403 641.132 358.315Z" fill="#24A439"/>
<path id="Vector_76" d="M905.517 390.788C893.322 410.796 870.102 417.862 870.102 417.862C870.102 417.862 866.653 392.488 878.848 372.48C891.043 352.472 914.263 345.407 914.263 345.407C914.263 345.407 917.711 370.78 905.517 390.788Z" fill="#24A439"/>
<path id="Vector_77" d="M587 881.183C587 881.183 596.593 880.888 599.484 878.829C602.375 876.771 614.239 874.313 614.957 877.614C615.674 880.916 629.373 894.035 618.542 894.122C607.712 894.209 593.378 892.435 590.493 890.678C587.608 888.92 587 881.183 587 881.183Z" fill="#A8A8A8"/>
<path id="Vector_78" d="M310 879.148C310 879.148 317.256 878.854 319.443 876.81C321.63 874.765 330.605 872.324 331.147 875.603C331.69 878.882 342.052 891.91 333.86 891.997C325.668 892.084 314.825 890.322 312.642 888.576C310.46 886.831 310 879.148 310 879.148Z" fill="#A8A8A8"/>
<path id="Vector_79" opacity="0.2" d="M648.394 885.444C639.728 885.513 628.258 884.094 625.95 882.687C624.191 881.616 623.491 877.773 623.256 876C623.094 876.007 623 876.01 623 876.01C623 876.01 623.486 882.201 625.795 883.607C628.104 885.013 639.574 886.433 648.239 886.363C650.741 886.343 651.605 885.453 651.557 884.135C651.21 884.931 650.256 885.429 648.394 885.444Z" fill="black"/>
<path id="Vector_80" d="M953.588 883.257C954.505 882.509 955.173 881.501 955.504 880.366C955.652 879.796 955.6 879.192 955.356 878.656C955.112 878.12 954.692 877.684 954.165 877.421C952.936 876.951 951.622 877.803 950.626 878.664C949.63 879.524 948.489 880.506 947.185 880.324C947.856 879.716 948.357 878.945 948.641 878.086C948.925 877.227 948.982 876.309 948.805 875.421C948.748 875.054 948.592 874.71 948.355 874.425C947.672 873.696 946.435 874.009 945.618 874.584C943.019 876.412 942.294 879.942 942.28 883.119C942.136 881.952 942.12 880.773 942.232 879.603C942.283 879.016 942.189 878.426 941.959 877.884C941.729 877.342 941.369 876.864 940.912 876.493C940.294 876.16 939.599 875.997 938.898 876.02C938.319 875.936 937.729 875.976 937.166 876.136C936.603 876.296 936.08 876.572 935.631 876.948C935.2 877.534 934.978 878.248 935.002 878.976C935.025 879.703 935.292 880.402 935.759 880.959C936.723 882.05 937.866 882.966 939.141 883.668C940.109 884.244 940.935 885.032 941.557 885.972C941.63 886.103 941.69 886.241 941.736 886.384H949.06C950.703 885.551 952.227 884.499 953.588 883.257Z" fill="#184D1D"/>
<path id="Vector_81" d="M729.38 880.464C730.582 879.62 731.458 878.48 731.892 877.196C732.086 876.552 732.017 875.87 731.698 875.264C731.378 874.658 730.827 874.165 730.136 873.867C728.524 873.336 726.801 874.299 725.495 875.272C724.188 876.245 722.691 877.355 720.981 877.149C721.861 876.462 722.519 875.591 722.891 874.619C723.264 873.648 723.338 872.61 723.106 871.606C723.031 871.192 722.827 870.803 722.515 870.481C721.62 869.656 719.998 870.01 718.926 870.66C715.518 872.726 714.567 876.717 714.548 880.309C714.359 878.99 714.338 877.657 714.485 876.334C714.552 875.671 714.429 875.003 714.127 874.39C713.825 873.778 713.353 873.238 712.754 872.818C711.944 872.442 711.032 872.258 710.113 872.283C709.353 872.189 708.579 872.233 707.841 872.414C707.102 872.595 706.416 872.908 705.828 873.333C705.262 873.995 704.972 874.803 705.002 875.625C705.033 876.447 705.383 877.237 705.996 877.867C707.259 879.1 708.76 880.136 710.431 880.929C711.701 881.581 712.784 882.472 713.6 883.535C713.696 883.683 713.775 883.839 713.835 884H723.44C725.596 883.058 727.594 881.869 729.38 880.464Z" fill="#184D1D"/>
<path id="Vector_82" d="M318.588 888.257C319.505 887.509 320.173 886.501 320.504 885.366C320.652 884.796 320.6 884.192 320.356 883.656C320.112 883.12 319.692 882.684 319.165 882.421C317.936 881.951 316.622 882.803 315.626 883.664C314.63 884.524 313.489 885.506 312.185 885.324C312.856 884.716 313.357 883.945 313.641 883.086C313.925 882.227 313.982 881.309 313.805 880.421C313.748 880.054 313.592 879.71 313.355 879.425C312.672 878.696 311.435 879.009 310.618 879.584C308.019 881.412 307.294 884.942 307.28 888.119C307.136 886.952 307.12 885.773 307.232 884.603C307.283 884.016 307.189 883.426 306.959 882.884C306.729 882.342 306.369 881.864 305.912 881.493C305.294 881.16 304.599 880.997 303.898 881.02C303.319 880.936 302.729 880.976 302.166 881.136C301.603 881.296 301.08 881.572 300.631 881.948C300.2 882.534 299.978 883.248 300.002 883.976C300.025 884.703 300.292 885.402 300.759 885.959C301.723 887.05 302.866 887.966 304.141 888.668C305.109 889.244 305.935 890.032 306.557 890.972C306.63 891.103 306.69 891.241 306.736 891.384H314.06C315.703 890.551 317.227 889.499 318.588 888.257Z" fill="#24A439"/>
<g id="birds">
<path id="Vector_83" d="M889.756 34.4659L898.962 27.1031C891.81 26.3141 888.872 30.2144 887.669 33.3015C882.082 30.9815 876 34.0219 876 34.0219L894.419 40.7086C893.49 38.2267 891.872 36.0612 889.756 34.4659Z" fill="#3F3D56"/>
<path id="Vector_84" d="M1029.76 109.466L1038.96 102.103C1031.81 101.314 1028.87 105.214 1027.67 108.302C1022.08 105.982 1016 109.022 1016 109.022L1034.42 115.709C1033.49 113.227 1031.87 111.061 1029.76 109.466Z" fill="#3F3D56"/>
<path id="Vector_85" d="M878.756 173.466L887.962 166.103C880.81 165.314 877.872 169.214 876.669 172.302C871.082 169.982 865 173.022 865 173.022L883.419 179.709C882.49 177.227 880.872 175.061 878.756 173.466Z" fill="#3F3D56"/>
<path id="Vector_86" d="M14.756 174.466L23.9617 167.103C16.8102 166.314 13.8718 170.214 12.6692 173.301C7.08219 170.981 1 174.022 1 174.022L19.4189 180.709C18.4897 178.227 16.8722 176.061 14.756 174.466Z" fill="#3F3D56"/>
<path id="Vector_87" d="M145.756 125.466L154.962 118.103C147.81 117.314 144.872 121.214 143.669 124.301C138.082 121.981 132 125.022 132 125.022L150.419 131.709C149.49 129.227 147.872 127.061 145.756 125.466Z" fill="#3F3D56"/>
</g>
<path id="Vector_88" d="M683.085 886.94C683.085 886.94 683.776 872.47 697.932 874.152L683.085 886.94Z" fill="#3F3D56"/>
<path id="Vector_89" d="M679.085 873.171C682.998 873.171 686.171 869.998 686.171 866.085C686.171 862.172 682.998 859 679.085 859C675.172 859 672 862.172 672 866.085C672 869.998 675.172 873.171 679.085 873.171Z" fill="#7123A2"/>
<path id="Vector_90" d="M679.932 878.016H677.932V892.016H679.932V878.016Z" fill="#3F3D56"/>
<path id="Vector_91" d="M707.085 860.94C707.085 860.94 707.776 846.47 721.932 848.152L707.085 860.94Z" fill="#3F3D56"/>
<path id="Vector_92" d="M703.085 847.171C706.998 847.171 710.171 843.998 710.171 840.085C710.171 836.172 706.998 833 703.085 833C699.172 833 696 836.172 696 840.085C696 843.998 699.172 847.171 703.085 847.171Z" fill="#EB565F"/>
<path id="Vector_93" d="M703.932 852.016H701.932V866.016H703.932V852.016Z" fill="#3F3D56"/>
<path id="Vector_94" d="M312.085 872.94C312.085 872.94 312.776 858.47 326.932 860.152L312.085 872.94Z" fill="#3F3D56"/>
<path id="Vector_95" d="M308.085 859.171C311.998 859.171 315.171 855.998 315.171 852.085C315.171 848.172 311.998 845 308.085 845C304.172 845 301 848.172 301 852.085C301 855.998 304.172 859.171 308.085 859.171Z" fill="#D60C6D"/>
<path id="Vector_96" d="M308.932 864.016H306.932V878.016H308.932V864.016Z" fill="#3F3D56"/>
<path id="Vector_97" d="M287 853C292.523 853 297 848.523 297 843C297 837.477 292.523 833 287 833C281.477 833 277 837.477 277 843C277 848.523 281.477 853 287 853Z" fill="#EE5353"/>
<path id="Vector_98" d="M288 860H285V880H288V860Z" fill="#3F3D56"/>
<path id="Vector_99" d="M274 879.183C274 879.183 283.593 878.888 286.484 876.829C289.375 874.771 301.239 872.313 301.957 875.614C302.674 878.916 316.373 892.035 305.542 892.122C294.712 892.209 280.378 890.435 277.493 888.678C274.608 886.92 274 879.183 274 879.183Z" fill="#A8A8A8"/>
</g>
<defs>
<linearGradient id="paint0_linear" x1="676" y1="360.5" x2="818" y2="360.5" gradientUnits="userSpaceOnUse">
<stop stop-color="white"/>
<stop offset="1" stop-color="white" stop-opacity="0.3"/>
</linearGradient>
<linearGradient id="paint1_linear" x1="38190.5" y1="19028.2" x2="43833.1" y2="19028.2" gradientUnits="userSpaceOnUse">
<stop stop-color="white"/>
<stop offset="1" stop-color="white" stop-opacity="0.3"/>
</linearGradient>
<clipPath id="clip0">
<rect width="1067" height="895" fill="white"/>
</clipPath>
</defs>
</svg>
